<mxfile host="app.diagrams.net" modified="2024-02-07T08:12:16.725Z" agent="Mozilla/5.0 (Windows NT 10.0; Win64; x64) AppleWebKit/537.36 (KHTML, like Gecko) Chrome/120.0.0.0 Safari/537.36" etag="D4hMqLZybHz24gXVnCN0" version="23.0.2" type="device">
  <diagram name="페이지-1" id="RyW2sdWnG1Ou0U7GGUi2">
    <mxGraphModel dx="3412" dy="2979" grid="1" gridSize="10" guides="1" tooltips="1" connect="1" arrows="1" fold="1" page="1" pageScale="1" pageWidth="827" pageHeight="1169" math="0" shadow="0">
      <root>
        <mxCell id="0" />
        <mxCell id="1" parent="0" />
        <mxCell id="54wMb6xm-zJrqUJl9DJ9-231" value="" style="edgeStyle=orthogonalEdgeStyle;rounded=0;orthogonalLoop=1;jettySize=auto;html=1;" parent="1" source="K70THNqEhpmeUqJIm1rK-3" target="K70THNqEhpmeUqJIm1rK-4" edge="1">
          <mxGeometry relative="1" as="geometry" />
        </mxCell>
        <mxCell id="K70THNqEhpmeUqJIm1rK-3" value="" style="shape=umlActor;verticalLabelPosition=bottom;verticalAlign=top;html=1;outlineConnect=0;" parent="1" vertex="1">
          <mxGeometry x="70" width="30" height="60" as="geometry" />
        </mxCell>
        <mxCell id="K70THNqEhpmeUqJIm1rK-4" value="로그인페이지" style="rounded=1;whiteSpace=wrap;html=1;" parent="1" vertex="1">
          <mxGeometry x="25" y="160" width="120" height="60" as="geometry" />
        </mxCell>
        <mxCell id="K70THNqEhpmeUqJIm1rK-6" value="" style="endArrow=classic;html=1;rounded=0;exitX=0.5;exitY=1;exitDx=0;exitDy=0;" parent="1" source="K70THNqEhpmeUqJIm1rK-4" edge="1">
          <mxGeometry width="50" height="50" relative="1" as="geometry">
            <mxPoint x="84.5" y="280" as="sourcePoint" />
            <mxPoint x="85" y="290" as="targetPoint" />
          </mxGeometry>
        </mxCell>
        <mxCell id="K70THNqEhpmeUqJIm1rK-7" value="" style="rhombus;whiteSpace=wrap;html=1;" parent="1" vertex="1">
          <mxGeometry x="45" y="290" width="80" height="80" as="geometry" />
        </mxCell>
        <mxCell id="K70THNqEhpmeUqJIm1rK-11" value="" style="endArrow=classic;html=1;rounded=0;exitX=0.983;exitY=0.533;exitDx=0;exitDy=0;exitPerimeter=0;entryX=0;entryY=0.5;entryDx=0;entryDy=0;" parent="1" source="K70THNqEhpmeUqJIm1rK-17" target="K70THNqEhpmeUqJIm1rK-18" edge="1">
          <mxGeometry width="50" height="50" relative="1" as="geometry">
            <mxPoint x="230" y="329.5" as="sourcePoint" />
            <mxPoint x="280" y="330" as="targetPoint" />
          </mxGeometry>
        </mxCell>
        <mxCell id="K70THNqEhpmeUqJIm1rK-13" value="관리자 로그인 성공" style="text;html=1;align=center;verticalAlign=middle;resizable=0;points=[];autosize=1;strokeColor=none;fillColor=none;" parent="1" vertex="1">
          <mxGeometry x="20" y="420" width="130" height="30" as="geometry" />
        </mxCell>
        <mxCell id="K70THNqEhpmeUqJIm1rK-14" value="" style="endArrow=none;html=1;rounded=0;exitX=1;exitY=0.5;exitDx=0;exitDy=0;" parent="1" source="K70THNqEhpmeUqJIm1rK-7" edge="1">
          <mxGeometry width="50" height="50" relative="1" as="geometry">
            <mxPoint x="120" y="340" as="sourcePoint" />
            <mxPoint x="140" y="330" as="targetPoint" />
          </mxGeometry>
        </mxCell>
        <mxCell id="K70THNqEhpmeUqJIm1rK-15" value="" style="endArrow=none;html=1;rounded=0;entryX=0.5;entryY=1;entryDx=0;entryDy=0;" parent="1" target="K70THNqEhpmeUqJIm1rK-7" edge="1">
          <mxGeometry width="50" height="50" relative="1" as="geometry">
            <mxPoint x="85" y="420" as="sourcePoint" />
            <mxPoint x="85" y="380" as="targetPoint" />
          </mxGeometry>
        </mxCell>
        <mxCell id="K70THNqEhpmeUqJIm1rK-17" value="작업자 로그인성공" style="text;html=1;align=center;verticalAlign=middle;resizable=0;points=[];autosize=1;strokeColor=none;fillColor=none;" parent="1" vertex="1">
          <mxGeometry x="135" y="315" width="120" height="30" as="geometry" />
        </mxCell>
        <mxCell id="K70THNqEhpmeUqJIm1rK-18" value="작업자 페이지" style="rounded=1;whiteSpace=wrap;html=1;" parent="1" vertex="1">
          <mxGeometry x="294" y="300" width="120" height="60" as="geometry" />
        </mxCell>
        <mxCell id="54wMb6xm-zJrqUJl9DJ9-189" value="로그인 실패" style="text;html=1;align=center;verticalAlign=middle;resizable=0;points=[];autosize=1;strokeColor=none;fillColor=none;" parent="1" vertex="1">
          <mxGeometry x="-80" y="250" width="90" height="30" as="geometry" />
        </mxCell>
        <mxCell id="54wMb6xm-zJrqUJl9DJ9-194" value="" style="endArrow=none;html=1;rounded=0;entryX=0;entryY=0.5;entryDx=0;entryDy=0;" parent="1" target="K70THNqEhpmeUqJIm1rK-7" edge="1">
          <mxGeometry width="50" height="50" relative="1" as="geometry">
            <mxPoint x="-40" y="330" as="sourcePoint" />
            <mxPoint y="320" as="targetPoint" />
          </mxGeometry>
        </mxCell>
        <mxCell id="54wMb6xm-zJrqUJl9DJ9-196" value="" style="endArrow=none;html=1;rounded=0;" parent="1" edge="1">
          <mxGeometry width="50" height="50" relative="1" as="geometry">
            <mxPoint x="-40" y="330" as="sourcePoint" />
            <mxPoint x="-40" y="290" as="targetPoint" />
          </mxGeometry>
        </mxCell>
        <mxCell id="54wMb6xm-zJrqUJl9DJ9-197" value="" style="edgeStyle=segmentEdgeStyle;endArrow=classic;html=1;curved=0;rounded=0;endSize=8;startSize=8;entryX=0;entryY=0.5;entryDx=0;entryDy=0;" parent="1" target="K70THNqEhpmeUqJIm1rK-4" edge="1">
          <mxGeometry width="50" height="50" relative="1" as="geometry">
            <mxPoint x="-40" y="240" as="sourcePoint" />
            <mxPoint x="10" y="190" as="targetPoint" />
            <Array as="points">
              <mxPoint x="-40" y="190" />
            </Array>
          </mxGeometry>
        </mxCell>
        <mxCell id="54wMb6xm-zJrqUJl9DJ9-198" value="관리자 페이지&lt;br&gt;(대쉬보드)" style="rounded=1;whiteSpace=wrap;html=1;" parent="1" vertex="1">
          <mxGeometry x="294" y="790" width="120" height="60" as="geometry" />
        </mxCell>
        <mxCell id="VZ5_ZMWETO9TakKGRXgN-1" value="" style="edgeStyle=elbowEdgeStyle;elbow=horizontal;endArrow=classic;html=1;curved=0;rounded=0;endSize=8;startSize=8;entryX=0;entryY=0.5;entryDx=0;entryDy=0;" edge="1" parent="1" target="54wMb6xm-zJrqUJl9DJ9-198">
          <mxGeometry width="50" height="50" relative="1" as="geometry">
            <mxPoint x="85" y="450" as="sourcePoint" />
            <mxPoint x="289" y="615" as="targetPoint" />
            <Array as="points">
              <mxPoint x="85" y="615" />
            </Array>
          </mxGeometry>
        </mxCell>
        <mxCell id="VZ5_ZMWETO9TakKGRXgN-6" value="직원관리 페이지" style="shape=hexagon;perimeter=hexagonPerimeter2;whiteSpace=wrap;html=1;fixedSize=1;" vertex="1" parent="1">
          <mxGeometry x="580" y="1405" width="120" height="80" as="geometry" />
        </mxCell>
        <mxCell id="VZ5_ZMWETO9TakKGRXgN-7" value="안전 지침서" style="rounded=1;whiteSpace=wrap;html=1;" vertex="1" parent="1">
          <mxGeometry x="1015" y="-170" width="120" height="60" as="geometry" />
        </mxCell>
        <mxCell id="VZ5_ZMWETO9TakKGRXgN-8" value="작업 지침서" style="rounded=1;whiteSpace=wrap;html=1;" vertex="1" parent="1">
          <mxGeometry x="1015" y="-260" width="120" height="60" as="geometry" />
        </mxCell>
        <mxCell id="VZ5_ZMWETO9TakKGRXgN-9" value="품질 검사" style="rounded=1;whiteSpace=wrap;html=1;" vertex="1" parent="1">
          <mxGeometry x="1015" y="-80" width="120" height="60" as="geometry" />
        </mxCell>
        <mxCell id="VZ5_ZMWETO9TakKGRXgN-10" value="작업 보고" style="rounded=1;whiteSpace=wrap;html=1;" vertex="1" parent="1">
          <mxGeometry x="1015" y="10" width="120" height="60" as="geometry" />
        </mxCell>
        <mxCell id="VZ5_ZMWETO9TakKGRXgN-23" value="" style="endArrow=none;html=1;rounded=0;strokeColor=#000000;exitX=1;exitY=0.5;exitDx=0;exitDy=0;" edge="1" parent="1">
          <mxGeometry width="50" height="50" relative="1" as="geometry">
            <mxPoint x="709.9999999999995" y="-96" as="sourcePoint" />
            <mxPoint x="933" y="-98" as="targetPoint" />
          </mxGeometry>
        </mxCell>
        <mxCell id="VZ5_ZMWETO9TakKGRXgN-30" value="" style="edgeStyle=elbowEdgeStyle;elbow=vertical;endArrow=classic;html=1;curved=0;rounded=0;endSize=8;startSize=8;" edge="1" parent="1">
          <mxGeometry width="50" height="50" relative="1" as="geometry">
            <mxPoint x="933" y="-98" as="sourcePoint" />
            <mxPoint x="1015" y="-138" as="targetPoint" />
            <Array as="points">
              <mxPoint x="933" y="-138" />
            </Array>
          </mxGeometry>
        </mxCell>
        <mxCell id="VZ5_ZMWETO9TakKGRXgN-31" value="" style="edgeStyle=elbowEdgeStyle;elbow=vertical;endArrow=classic;html=1;curved=0;rounded=0;endSize=8;startSize=8;entryX=0;entryY=0.5;entryDx=0;entryDy=0;" edge="1" parent="1" target="VZ5_ZMWETO9TakKGRXgN-8">
          <mxGeometry width="50" height="50" relative="1" as="geometry">
            <mxPoint x="933" y="-98" as="sourcePoint" />
            <mxPoint x="983" y="-238" as="targetPoint" />
            <Array as="points">
              <mxPoint x="973" y="-230" />
            </Array>
          </mxGeometry>
        </mxCell>
        <mxCell id="VZ5_ZMWETO9TakKGRXgN-32" value="" style="edgeStyle=elbowEdgeStyle;elbow=vertical;endArrow=classic;html=1;curved=0;rounded=0;endSize=8;startSize=8;" edge="1" parent="1">
          <mxGeometry width="50" height="50" relative="1" as="geometry">
            <mxPoint x="933" y="-98" as="sourcePoint" />
            <mxPoint x="1013" y="-48" as="targetPoint" />
            <Array as="points">
              <mxPoint x="943" y="-48" />
            </Array>
          </mxGeometry>
        </mxCell>
        <mxCell id="VZ5_ZMWETO9TakKGRXgN-33" value="" style="edgeStyle=elbowEdgeStyle;elbow=vertical;endArrow=classic;html=1;curved=0;rounded=0;endSize=8;startSize=8;" edge="1" parent="1">
          <mxGeometry width="50" height="50" relative="1" as="geometry">
            <mxPoint x="933" y="-48" as="sourcePoint" />
            <mxPoint x="1013" y="42" as="targetPoint" />
            <Array as="points">
              <mxPoint x="933" y="42" />
            </Array>
          </mxGeometry>
        </mxCell>
        <mxCell id="VZ5_ZMWETO9TakKGRXgN-34" value="공정도" style="rounded=1;whiteSpace=wrap;html=1;" vertex="1" parent="1">
          <mxGeometry x="1015" y="215" width="120" height="60" as="geometry" />
        </mxCell>
        <mxCell id="VZ5_ZMWETO9TakKGRXgN-35" value="설비 모니터링" style="rounded=1;whiteSpace=wrap;html=1;" vertex="1" parent="1">
          <mxGeometry x="1015" y="125" width="120" height="60" as="geometry" />
        </mxCell>
        <mxCell id="VZ5_ZMWETO9TakKGRXgN-36" value="설비 설정" style="rounded=1;whiteSpace=wrap;html=1;" vertex="1" parent="1">
          <mxGeometry x="1015" y="305" width="120" height="60" as="geometry" />
        </mxCell>
        <mxCell id="VZ5_ZMWETO9TakKGRXgN-37" value="작업 페이지" style="shape=hexagon;perimeter=hexagonPerimeter2;whiteSpace=wrap;html=1;fixedSize=1;" vertex="1" parent="1">
          <mxGeometry x="590" y="-135" width="120" height="80" as="geometry" />
        </mxCell>
        <mxCell id="VZ5_ZMWETO9TakKGRXgN-38" value="설비 페이지" style="shape=hexagon;perimeter=hexagonPerimeter2;whiteSpace=wrap;html=1;fixedSize=1;" vertex="1" parent="1">
          <mxGeometry x="590" y="205" width="120" height="80" as="geometry" />
        </mxCell>
        <mxCell id="VZ5_ZMWETO9TakKGRXgN-39" value="재고관리 페이지" style="shape=hexagon;perimeter=hexagonPerimeter2;whiteSpace=wrap;html=1;fixedSize=1;" vertex="1" parent="1">
          <mxGeometry x="590" y="535" width="120" height="80" as="geometry" />
        </mxCell>
        <mxCell id="VZ5_ZMWETO9TakKGRXgN-40" value="게시판 페이지" style="shape=hexagon;perimeter=hexagonPerimeter2;whiteSpace=wrap;html=1;fixedSize=1;" vertex="1" parent="1">
          <mxGeometry x="590" y="942" width="120" height="80" as="geometry" />
        </mxCell>
        <mxCell id="VZ5_ZMWETO9TakKGRXgN-53" value="" style="rhombus;whiteSpace=wrap;html=1;" vertex="1" parent="1">
          <mxGeometry x="1190" y="1129" width="80" height="80" as="geometry" />
        </mxCell>
        <mxCell id="VZ5_ZMWETO9TakKGRXgN-61" value="" style="endArrow=classic;html=1;rounded=0;entryX=0;entryY=0.5;entryDx=0;entryDy=0;exitX=1;exitY=0.5;exitDx=0;exitDy=0;" edge="1" parent="1" source="VZ5_ZMWETO9TakKGRXgN-38" target="VZ5_ZMWETO9TakKGRXgN-34">
          <mxGeometry width="50" height="50" relative="1" as="geometry">
            <mxPoint x="867" y="245" as="sourcePoint" />
            <mxPoint x="917" y="195" as="targetPoint" />
          </mxGeometry>
        </mxCell>
        <mxCell id="VZ5_ZMWETO9TakKGRXgN-62" value="" style="edgeStyle=segmentEdgeStyle;endArrow=classic;html=1;curved=0;rounded=0;endSize=8;startSize=8;" edge="1" parent="1">
          <mxGeometry width="50" height="50" relative="1" as="geometry">
            <mxPoint x="943" y="245" as="sourcePoint" />
            <mxPoint x="1010" y="150" as="targetPoint" />
            <Array as="points">
              <mxPoint x="933" y="245" />
              <mxPoint x="933" y="150" />
            </Array>
          </mxGeometry>
        </mxCell>
        <mxCell id="VZ5_ZMWETO9TakKGRXgN-66" value="" style="edgeStyle=segmentEdgeStyle;endArrow=classic;html=1;curved=0;rounded=0;endSize=8;startSize=8;" edge="1" parent="1">
          <mxGeometry width="50" height="50" relative="1" as="geometry">
            <mxPoint x="941" y="245" as="sourcePoint" />
            <mxPoint x="1011" y="340" as="targetPoint" />
            <Array as="points">
              <mxPoint x="933" y="245" />
              <mxPoint x="933" y="340" />
            </Array>
          </mxGeometry>
        </mxCell>
        <mxCell id="VZ5_ZMWETO9TakKGRXgN-67" value="관리자" style="rhombus;whiteSpace=wrap;html=1;" vertex="1" parent="1">
          <mxGeometry x="1190" y="-270" width="80" height="80" as="geometry" />
        </mxCell>
        <mxCell id="VZ5_ZMWETO9TakKGRXgN-68" value="" style="endArrow=classic;html=1;rounded=0;" edge="1" parent="1">
          <mxGeometry width="50" height="50" relative="1" as="geometry">
            <mxPoint x="1135" y="-230" as="sourcePoint" />
            <mxPoint x="1185" y="-230" as="targetPoint" />
          </mxGeometry>
        </mxCell>
        <mxCell id="VZ5_ZMWETO9TakKGRXgN-69" value="추가,수정" style="rounded=1;whiteSpace=wrap;html=1;" vertex="1" parent="1">
          <mxGeometry x="1320" y="-260" width="120" height="60" as="geometry" />
        </mxCell>
        <mxCell id="VZ5_ZMWETO9TakKGRXgN-70" value="" style="endArrow=classic;html=1;rounded=0;" edge="1" parent="1">
          <mxGeometry width="50" height="50" relative="1" as="geometry">
            <mxPoint x="1270" y="-230.42" as="sourcePoint" />
            <mxPoint x="1320" y="-230.42" as="targetPoint" />
          </mxGeometry>
        </mxCell>
        <mxCell id="VZ5_ZMWETO9TakKGRXgN-71" value="" style="endArrow=classic;html=1;rounded=0;" edge="1" parent="1">
          <mxGeometry width="50" height="50" relative="1" as="geometry">
            <mxPoint x="1135" y="-140" as="sourcePoint" />
            <mxPoint x="1185" y="-140" as="targetPoint" />
          </mxGeometry>
        </mxCell>
        <mxCell id="VZ5_ZMWETO9TakKGRXgN-72" value="관리자" style="rhombus;whiteSpace=wrap;html=1;" vertex="1" parent="1">
          <mxGeometry x="1190" y="-180" width="80" height="80" as="geometry" />
        </mxCell>
        <mxCell id="VZ5_ZMWETO9TakKGRXgN-73" value="" style="endArrow=classic;html=1;rounded=0;" edge="1" parent="1">
          <mxGeometry width="50" height="50" relative="1" as="geometry">
            <mxPoint x="1270" y="-140.42" as="sourcePoint" />
            <mxPoint x="1320" y="-140.42" as="targetPoint" />
          </mxGeometry>
        </mxCell>
        <mxCell id="VZ5_ZMWETO9TakKGRXgN-74" value="추가,수정" style="rounded=1;whiteSpace=wrap;html=1;" vertex="1" parent="1">
          <mxGeometry x="1320" y="-170" width="120" height="60" as="geometry" />
        </mxCell>
        <mxCell id="VZ5_ZMWETO9TakKGRXgN-75" value="" style="endArrow=classic;html=1;rounded=0;" edge="1" parent="1">
          <mxGeometry width="50" height="50" relative="1" as="geometry">
            <mxPoint x="1135" y="-50" as="sourcePoint" />
            <mxPoint x="1185" y="-50" as="targetPoint" />
          </mxGeometry>
        </mxCell>
        <mxCell id="VZ5_ZMWETO9TakKGRXgN-76" value="관리자" style="rhombus;whiteSpace=wrap;html=1;" vertex="1" parent="1">
          <mxGeometry x="1190" y="-90" width="80" height="80" as="geometry" />
        </mxCell>
        <mxCell id="VZ5_ZMWETO9TakKGRXgN-77" value="" style="endArrow=classic;html=1;rounded=0;" edge="1" parent="1">
          <mxGeometry width="50" height="50" relative="1" as="geometry">
            <mxPoint x="1270" y="-50.41999999999999" as="sourcePoint" />
            <mxPoint x="1320" y="-50.41999999999999" as="targetPoint" />
          </mxGeometry>
        </mxCell>
        <mxCell id="VZ5_ZMWETO9TakKGRXgN-78" value="추가,수정" style="rounded=1;whiteSpace=wrap;html=1;" vertex="1" parent="1">
          <mxGeometry x="1320" y="-80" width="120" height="60" as="geometry" />
        </mxCell>
        <mxCell id="VZ5_ZMWETO9TakKGRXgN-79" value="" style="endArrow=classic;html=1;rounded=0;" edge="1" parent="1">
          <mxGeometry width="50" height="50" relative="1" as="geometry">
            <mxPoint x="1135" y="40" as="sourcePoint" />
            <mxPoint x="1185" y="40" as="targetPoint" />
          </mxGeometry>
        </mxCell>
        <mxCell id="VZ5_ZMWETO9TakKGRXgN-80" value="관리자" style="rhombus;whiteSpace=wrap;html=1;" vertex="1" parent="1">
          <mxGeometry x="1190" width="80" height="80" as="geometry" />
        </mxCell>
        <mxCell id="VZ5_ZMWETO9TakKGRXgN-81" value="" style="endArrow=classic;html=1;rounded=0;" edge="1" parent="1">
          <mxGeometry width="50" height="50" relative="1" as="geometry">
            <mxPoint x="1270" y="39.58000000000001" as="sourcePoint" />
            <mxPoint x="1320" y="39.58000000000001" as="targetPoint" />
          </mxGeometry>
        </mxCell>
        <mxCell id="VZ5_ZMWETO9TakKGRXgN-82" value="추가,수정" style="rounded=1;whiteSpace=wrap;html=1;" vertex="1" parent="1">
          <mxGeometry x="1320" y="10" width="120" height="60" as="geometry" />
        </mxCell>
        <mxCell id="VZ5_ZMWETO9TakKGRXgN-83" value="" style="edgeStyle=elbowEdgeStyle;elbow=vertical;endArrow=classic;html=1;curved=0;rounded=0;endSize=8;startSize=8;entryX=0;entryY=0.5;entryDx=0;entryDy=0;" edge="1" target="VZ5_ZMWETO9TakKGRXgN-84" parent="1">
          <mxGeometry width="50" height="50" relative="1" as="geometry">
            <mxPoint x="933" y="572" as="sourcePoint" />
            <mxPoint x="983" y="432" as="targetPoint" />
            <Array as="points">
              <mxPoint x="973" y="440" />
            </Array>
          </mxGeometry>
        </mxCell>
        <mxCell id="VZ5_ZMWETO9TakKGRXgN-84" value="재고 현황 페이지" style="rounded=1;whiteSpace=wrap;html=1;" vertex="1" parent="1">
          <mxGeometry x="1015" y="410" width="120" height="60" as="geometry" />
        </mxCell>
        <mxCell id="VZ5_ZMWETO9TakKGRXgN-85" value="재고 신청 페이지" style="rounded=1;whiteSpace=wrap;html=1;" vertex="1" parent="1">
          <mxGeometry x="1015" y="500" width="120" height="60" as="geometry" />
        </mxCell>
        <mxCell id="VZ5_ZMWETO9TakKGRXgN-86" value="" style="edgeStyle=elbowEdgeStyle;elbow=vertical;endArrow=classic;html=1;curved=0;rounded=0;endSize=8;startSize=8;" edge="1" parent="1" target="VZ5_ZMWETO9TakKGRXgN-85">
          <mxGeometry width="50" height="50" relative="1" as="geometry">
            <mxPoint x="933" y="572" as="sourcePoint" />
            <mxPoint x="990" y="530" as="targetPoint" />
            <Array as="points">
              <mxPoint x="933" y="532" />
            </Array>
          </mxGeometry>
        </mxCell>
        <mxCell id="VZ5_ZMWETO9TakKGRXgN-87" value="" style="edgeStyle=elbowEdgeStyle;elbow=vertical;endArrow=classic;html=1;curved=0;rounded=0;endSize=8;startSize=8;" edge="1" parent="1">
          <mxGeometry width="50" height="50" relative="1" as="geometry">
            <mxPoint x="933" y="572" as="sourcePoint" />
            <mxPoint x="1013" y="622" as="targetPoint" />
            <Array as="points">
              <mxPoint x="943" y="622" />
            </Array>
          </mxGeometry>
        </mxCell>
        <mxCell id="VZ5_ZMWETO9TakKGRXgN-88" value="완제품 관리 페이지" style="rounded=1;whiteSpace=wrap;html=1;" vertex="1" parent="1">
          <mxGeometry x="1015" y="590" width="120" height="60" as="geometry" />
        </mxCell>
        <mxCell id="VZ5_ZMWETO9TakKGRXgN-89" value="재고 불량 신고 &lt;br&gt;페이지" style="rounded=1;whiteSpace=wrap;html=1;" vertex="1" parent="1">
          <mxGeometry x="1015" y="680" width="120" height="60" as="geometry" />
        </mxCell>
        <mxCell id="VZ5_ZMWETO9TakKGRXgN-90" value="" style="edgeStyle=elbowEdgeStyle;elbow=vertical;endArrow=classic;html=1;curved=0;rounded=0;endSize=8;startSize=8;" edge="1" parent="1">
          <mxGeometry width="50" height="50" relative="1" as="geometry">
            <mxPoint x="933" y="622" as="sourcePoint" />
            <mxPoint x="1013" y="712" as="targetPoint" />
            <Array as="points">
              <mxPoint x="933" y="712" />
            </Array>
          </mxGeometry>
        </mxCell>
        <mxCell id="VZ5_ZMWETO9TakKGRXgN-91" value="" style="endArrow=none;html=1;rounded=0;strokeColor=#000000;exitX=1;exitY=0.5;exitDx=0;exitDy=0;" edge="1" parent="1">
          <mxGeometry width="50" height="50" relative="1" as="geometry">
            <mxPoint x="709.9999999999995" y="574" as="sourcePoint" />
            <mxPoint x="933" y="572" as="targetPoint" />
          </mxGeometry>
        </mxCell>
        <mxCell id="VZ5_ZMWETO9TakKGRXgN-93" value="재고 신청 확인,&lt;br&gt;업체 주문 요청" style="rounded=1;whiteSpace=wrap;html=1;" vertex="1" parent="1">
          <mxGeometry x="1400" y="498" width="120" height="60" as="geometry" />
        </mxCell>
        <mxCell id="VZ5_ZMWETO9TakKGRXgN-102" value="" style="endArrow=classic;html=1;rounded=0;" edge="1" parent="1">
          <mxGeometry width="50" height="50" relative="1" as="geometry">
            <mxPoint x="1137.5" y="528" as="sourcePoint" />
            <mxPoint x="1187.5" y="528" as="targetPoint" />
          </mxGeometry>
        </mxCell>
        <mxCell id="VZ5_ZMWETO9TakKGRXgN-103" value="" style="rhombus;whiteSpace=wrap;html=1;" vertex="1" parent="1">
          <mxGeometry x="1192.5" y="488" width="80" height="80" as="geometry" />
        </mxCell>
        <mxCell id="VZ5_ZMWETO9TakKGRXgN-104" value="" style="endArrow=classic;html=1;rounded=0;" edge="1" parent="1">
          <mxGeometry width="50" height="50" relative="1" as="geometry">
            <mxPoint x="1350.5" y="527.58" as="sourcePoint" />
            <mxPoint x="1400.5" y="527.58" as="targetPoint" />
          </mxGeometry>
        </mxCell>
        <mxCell id="VZ5_ZMWETO9TakKGRXgN-115" value="" style="endArrow=classic;html=1;rounded=0;entryX=0;entryY=0.5;entryDx=0;entryDy=0;exitX=1;exitY=0.5;exitDx=0;exitDy=0;" edge="1" target="VZ5_ZMWETO9TakKGRXgN-119" parent="1">
          <mxGeometry width="50" height="50" relative="1" as="geometry">
            <mxPoint x="710" y="982" as="sourcePoint" />
            <mxPoint x="917" y="932" as="targetPoint" />
          </mxGeometry>
        </mxCell>
        <mxCell id="VZ5_ZMWETO9TakKGRXgN-116" value="" style="edgeStyle=segmentEdgeStyle;endArrow=classic;html=1;curved=0;rounded=0;endSize=8;startSize=8;" edge="1" parent="1">
          <mxGeometry width="50" height="50" relative="1" as="geometry">
            <mxPoint x="943" y="982" as="sourcePoint" />
            <mxPoint x="1010" y="887" as="targetPoint" />
            <Array as="points">
              <mxPoint x="933" y="982" />
              <mxPoint x="933" y="887" />
            </Array>
          </mxGeometry>
        </mxCell>
        <mxCell id="VZ5_ZMWETO9TakKGRXgN-117" value="" style="edgeStyle=segmentEdgeStyle;endArrow=classic;html=1;curved=0;rounded=0;endSize=8;startSize=8;" edge="1" parent="1">
          <mxGeometry width="50" height="50" relative="1" as="geometry">
            <mxPoint x="941" y="982" as="sourcePoint" />
            <mxPoint x="1011" y="1077" as="targetPoint" />
            <Array as="points">
              <mxPoint x="933" y="982" />
              <mxPoint x="933" y="1077" />
            </Array>
          </mxGeometry>
        </mxCell>
        <mxCell id="VZ5_ZMWETO9TakKGRXgN-118" value="Q &amp;amp; A&lt;br&gt;페이지" style="rounded=1;whiteSpace=wrap;html=1;" vertex="1" parent="1">
          <mxGeometry x="1015" y="1042" width="120" height="60" as="geometry" />
        </mxCell>
        <mxCell id="VZ5_ZMWETO9TakKGRXgN-119" value="건의 사항&lt;br&gt;페이지" style="rounded=1;whiteSpace=wrap;html=1;" vertex="1" parent="1">
          <mxGeometry x="1015" y="952" width="120" height="60" as="geometry" />
        </mxCell>
        <mxCell id="VZ5_ZMWETO9TakKGRXgN-120" value="자유 게시판&lt;br&gt;페이지" style="rounded=1;whiteSpace=wrap;html=1;" vertex="1" parent="1">
          <mxGeometry x="1014" y="862" width="120" height="60" as="geometry" />
        </mxCell>
        <mxCell id="VZ5_ZMWETO9TakKGRXgN-133" value="관리자" style="text;html=1;strokeColor=none;fillColor=none;align=center;verticalAlign=middle;whiteSpace=wrap;rounded=0;" vertex="1" parent="1">
          <mxGeometry x="1297" y="513" width="60" height="30" as="geometry" />
        </mxCell>
        <mxCell id="VZ5_ZMWETO9TakKGRXgN-134" value="" style="endArrow=none;html=1;rounded=0;entryX=-0.056;entryY=0.502;entryDx=0;entryDy=0;entryPerimeter=0;" edge="1" parent="1" target="VZ5_ZMWETO9TakKGRXgN-133">
          <mxGeometry width="50" height="50" relative="1" as="geometry">
            <mxPoint x="1272.5" y="528.3" as="sourcePoint" />
            <mxPoint x="1285.5" y="527.6953488372092" as="targetPoint" />
          </mxGeometry>
        </mxCell>
        <mxCell id="VZ5_ZMWETO9TakKGRXgN-135" value="" style="endArrow=none;html=1;rounded=0;" edge="1" parent="1">
          <mxGeometry width="50" height="50" relative="1" as="geometry">
            <mxPoint x="1232" y="488" as="sourcePoint" />
            <mxPoint x="1232" y="430" as="targetPoint" />
          </mxGeometry>
        </mxCell>
        <mxCell id="VZ5_ZMWETO9TakKGRXgN-136" value="재고 신청" style="rounded=1;whiteSpace=wrap;html=1;" vertex="1" parent="1">
          <mxGeometry x="1400" y="400" width="120" height="60" as="geometry" />
        </mxCell>
        <mxCell id="VZ5_ZMWETO9TakKGRXgN-137" value="" style="endArrow=none;html=1;rounded=0;entryX=-0.056;entryY=0.502;entryDx=0;entryDy=0;entryPerimeter=0;" edge="1" parent="1">
          <mxGeometry width="50" height="50" relative="1" as="geometry">
            <mxPoint x="1232" y="430" as="sourcePoint" />
            <mxPoint x="1295.6399999999999" y="430.05999999999995" as="targetPoint" />
          </mxGeometry>
        </mxCell>
        <mxCell id="VZ5_ZMWETO9TakKGRXgN-138" value="작업자" style="text;html=1;strokeColor=none;fillColor=none;align=center;verticalAlign=middle;whiteSpace=wrap;rounded=0;" vertex="1" parent="1">
          <mxGeometry x="1297" y="415" width="60" height="30" as="geometry" />
        </mxCell>
        <mxCell id="VZ5_ZMWETO9TakKGRXgN-139" value="" style="endArrow=classic;html=1;rounded=0;" edge="1" parent="1">
          <mxGeometry width="50" height="50" relative="1" as="geometry">
            <mxPoint x="1350.5" y="429.58000000000004" as="sourcePoint" />
            <mxPoint x="1400.5" y="429.58000000000004" as="targetPoint" />
          </mxGeometry>
        </mxCell>
        <mxCell id="VZ5_ZMWETO9TakKGRXgN-140" value="" style="endArrow=none;html=1;rounded=0;entryX=-0.056;entryY=0.502;entryDx=0;entryDy=0;entryPerimeter=0;" edge="1" target="VZ5_ZMWETO9TakKGRXgN-150" parent="1">
          <mxGeometry width="50" height="50" relative="1" as="geometry">
            <mxPoint x="1270" y="708.3" as="sourcePoint" />
            <mxPoint x="1283" y="707.6953488372092" as="targetPoint" />
          </mxGeometry>
        </mxCell>
        <mxCell id="VZ5_ZMWETO9TakKGRXgN-141" value="" style="endArrow=classic;html=1;rounded=0;" edge="1" parent="1">
          <mxGeometry width="50" height="50" relative="1" as="geometry">
            <mxPoint x="1135" y="708" as="sourcePoint" />
            <mxPoint x="1185" y="708" as="targetPoint" />
          </mxGeometry>
        </mxCell>
        <mxCell id="VZ5_ZMWETO9TakKGRXgN-142" value="" style="rhombus;whiteSpace=wrap;html=1;" vertex="1" parent="1">
          <mxGeometry x="1190" y="668" width="80" height="80" as="geometry" />
        </mxCell>
        <mxCell id="VZ5_ZMWETO9TakKGRXgN-143" value="" style="endArrow=none;html=1;rounded=0;" edge="1" parent="1">
          <mxGeometry width="50" height="50" relative="1" as="geometry">
            <mxPoint x="1229.5" y="668" as="sourcePoint" />
            <mxPoint x="1229.5" y="610" as="targetPoint" />
          </mxGeometry>
        </mxCell>
        <mxCell id="VZ5_ZMWETO9TakKGRXgN-144" value="" style="endArrow=none;html=1;rounded=0;entryX=-0.056;entryY=0.502;entryDx=0;entryDy=0;entryPerimeter=0;" edge="1" parent="1">
          <mxGeometry width="50" height="50" relative="1" as="geometry">
            <mxPoint x="1229.5" y="610" as="sourcePoint" />
            <mxPoint x="1293.1399999999999" y="610.06" as="targetPoint" />
          </mxGeometry>
        </mxCell>
        <mxCell id="VZ5_ZMWETO9TakKGRXgN-145" value="작업자" style="text;html=1;strokeColor=none;fillColor=none;align=center;verticalAlign=middle;whiteSpace=wrap;rounded=0;" vertex="1" parent="1">
          <mxGeometry x="1294.5" y="595" width="60" height="30" as="geometry" />
        </mxCell>
        <mxCell id="VZ5_ZMWETO9TakKGRXgN-146" value="" style="endArrow=classic;html=1;rounded=0;" edge="1" parent="1">
          <mxGeometry width="50" height="50" relative="1" as="geometry">
            <mxPoint x="1348" y="609.58" as="sourcePoint" />
            <mxPoint x="1398" y="609.58" as="targetPoint" />
          </mxGeometry>
        </mxCell>
        <mxCell id="VZ5_ZMWETO9TakKGRXgN-147" value="불량 재고 신청" style="rounded=1;whiteSpace=wrap;html=1;" vertex="1" parent="1">
          <mxGeometry x="1397.5" y="580" width="120" height="60" as="geometry" />
        </mxCell>
        <mxCell id="VZ5_ZMWETO9TakKGRXgN-148" value="불량 신청 확인,&lt;br&gt;업체 환불 요청" style="rounded=1;whiteSpace=wrap;html=1;" vertex="1" parent="1">
          <mxGeometry x="1397.5" y="678" width="120" height="60" as="geometry" />
        </mxCell>
        <mxCell id="VZ5_ZMWETO9TakKGRXgN-149" value="" style="endArrow=classic;html=1;rounded=0;" edge="1" parent="1">
          <mxGeometry width="50" height="50" relative="1" as="geometry">
            <mxPoint x="1348" y="707.58" as="sourcePoint" />
            <mxPoint x="1398" y="707.58" as="targetPoint" />
          </mxGeometry>
        </mxCell>
        <mxCell id="VZ5_ZMWETO9TakKGRXgN-150" value="관리자" style="text;html=1;strokeColor=none;fillColor=none;align=center;verticalAlign=middle;whiteSpace=wrap;rounded=0;" vertex="1" parent="1">
          <mxGeometry x="1294.5" y="693" width="60" height="30" as="geometry" />
        </mxCell>
        <mxCell id="VZ5_ZMWETO9TakKGRXgN-151" value="" style="endArrow=none;html=1;rounded=0;entryX=-0.056;entryY=0.502;entryDx=0;entryDy=0;entryPerimeter=0;" edge="1" target="VZ5_ZMWETO9TakKGRXgN-156" parent="1">
          <mxGeometry width="50" height="50" relative="1" as="geometry">
            <mxPoint x="1270" y="886.3" as="sourcePoint" />
            <mxPoint x="1283" y="885.6953488372092" as="targetPoint" />
          </mxGeometry>
        </mxCell>
        <mxCell id="VZ5_ZMWETO9TakKGRXgN-152" value="" style="endArrow=classic;html=1;rounded=0;" edge="1" parent="1">
          <mxGeometry width="50" height="50" relative="1" as="geometry">
            <mxPoint x="1135" y="886" as="sourcePoint" />
            <mxPoint x="1185" y="886" as="targetPoint" />
          </mxGeometry>
        </mxCell>
        <mxCell id="VZ5_ZMWETO9TakKGRXgN-153" value="" style="rhombus;whiteSpace=wrap;html=1;" vertex="1" parent="1">
          <mxGeometry x="1190" y="846" width="80" height="80" as="geometry" />
        </mxCell>
        <mxCell id="VZ5_ZMWETO9TakKGRXgN-154" value="" style="endArrow=classic;html=1;rounded=0;" edge="1" parent="1">
          <mxGeometry width="50" height="50" relative="1" as="geometry">
            <mxPoint x="1348" y="885.58" as="sourcePoint" />
            <mxPoint x="1398" y="885.58" as="targetPoint" />
          </mxGeometry>
        </mxCell>
        <mxCell id="VZ5_ZMWETO9TakKGRXgN-155" value="공지 작성" style="rounded=1;whiteSpace=wrap;html=1;" vertex="1" parent="1">
          <mxGeometry x="1397.5" y="856" width="120" height="60" as="geometry" />
        </mxCell>
        <mxCell id="VZ5_ZMWETO9TakKGRXgN-156" value="관리자" style="text;html=1;strokeColor=none;fillColor=none;align=center;verticalAlign=middle;whiteSpace=wrap;rounded=0;" vertex="1" parent="1">
          <mxGeometry x="1294.5" y="871" width="60" height="30" as="geometry" />
        </mxCell>
        <mxCell id="VZ5_ZMWETO9TakKGRXgN-157" value="" style="endArrow=none;html=1;rounded=0;" edge="1" parent="1">
          <mxGeometry width="50" height="50" relative="1" as="geometry">
            <mxPoint x="1229.5" y="846" as="sourcePoint" />
            <mxPoint x="1229.5" y="788" as="targetPoint" />
          </mxGeometry>
        </mxCell>
        <mxCell id="VZ5_ZMWETO9TakKGRXgN-158" value="" style="endArrow=none;html=1;rounded=0;entryX=-0.056;entryY=0.502;entryDx=0;entryDy=0;entryPerimeter=0;" edge="1" parent="1">
          <mxGeometry width="50" height="50" relative="1" as="geometry">
            <mxPoint x="1229.5" y="788" as="sourcePoint" />
            <mxPoint x="1293.1399999999999" y="788.06" as="targetPoint" />
          </mxGeometry>
        </mxCell>
        <mxCell id="VZ5_ZMWETO9TakKGRXgN-159" value="" style="endArrow=classic;html=1;rounded=0;" edge="1" parent="1">
          <mxGeometry width="50" height="50" relative="1" as="geometry">
            <mxPoint x="1348" y="787.58" as="sourcePoint" />
            <mxPoint x="1398" y="787.58" as="targetPoint" />
          </mxGeometry>
        </mxCell>
        <mxCell id="VZ5_ZMWETO9TakKGRXgN-160" value="작업자" style="text;html=1;strokeColor=none;fillColor=none;align=center;verticalAlign=middle;whiteSpace=wrap;rounded=0;" vertex="1" parent="1">
          <mxGeometry x="1294.5" y="773" width="60" height="30" as="geometry" />
        </mxCell>
        <mxCell id="VZ5_ZMWETO9TakKGRXgN-161" value="글 작성" style="rounded=1;whiteSpace=wrap;html=1;" vertex="1" parent="1">
          <mxGeometry x="1397.5" y="758" width="120" height="60" as="geometry" />
        </mxCell>
        <mxCell id="VZ5_ZMWETO9TakKGRXgN-162" value="" style="endArrow=none;html=1;rounded=0;entryX=-0.056;entryY=0.502;entryDx=0;entryDy=0;entryPerimeter=0;" edge="1" target="VZ5_ZMWETO9TakKGRXgN-163" parent="1">
          <mxGeometry width="50" height="50" relative="1" as="geometry">
            <mxPoint x="1272.5" y="980.3" as="sourcePoint" />
            <mxPoint x="1285.5" y="979.6953488372092" as="targetPoint" />
          </mxGeometry>
        </mxCell>
        <mxCell id="VZ5_ZMWETO9TakKGRXgN-163" value="관리자" style="text;html=1;strokeColor=none;fillColor=none;align=center;verticalAlign=middle;whiteSpace=wrap;rounded=0;" vertex="1" parent="1">
          <mxGeometry x="1297" y="965" width="60" height="30" as="geometry" />
        </mxCell>
        <mxCell id="VZ5_ZMWETO9TakKGRXgN-164" value="" style="endArrow=classic;html=1;rounded=0;" edge="1" parent="1">
          <mxGeometry width="50" height="50" relative="1" as="geometry">
            <mxPoint x="1350.5" y="979.5799999999999" as="sourcePoint" />
            <mxPoint x="1400.5" y="979.5799999999999" as="targetPoint" />
          </mxGeometry>
        </mxCell>
        <mxCell id="VZ5_ZMWETO9TakKGRXgN-165" value="건의 사항 확인" style="rounded=1;whiteSpace=wrap;html=1;" vertex="1" parent="1">
          <mxGeometry x="1400" y="950" width="120" height="60" as="geometry" />
        </mxCell>
        <mxCell id="VZ5_ZMWETO9TakKGRXgN-166" value="건의 사항 작성" style="rounded=1;whiteSpace=wrap;html=1;" vertex="1" parent="1">
          <mxGeometry x="1400" y="1047" width="120" height="60" as="geometry" />
        </mxCell>
        <mxCell id="VZ5_ZMWETO9TakKGRXgN-167" value="" style="endArrow=classic;html=1;rounded=0;" edge="1" parent="1">
          <mxGeometry width="50" height="50" relative="1" as="geometry">
            <mxPoint x="1350.5" y="1076.58" as="sourcePoint" />
            <mxPoint x="1400.5" y="1076.58" as="targetPoint" />
          </mxGeometry>
        </mxCell>
        <mxCell id="VZ5_ZMWETO9TakKGRXgN-168" value="작업자" style="text;html=1;strokeColor=none;fillColor=none;align=center;verticalAlign=middle;whiteSpace=wrap;rounded=0;" vertex="1" parent="1">
          <mxGeometry x="1297" y="1062" width="60" height="30" as="geometry" />
        </mxCell>
        <mxCell id="VZ5_ZMWETO9TakKGRXgN-169" value="" style="endArrow=none;html=1;rounded=0;entryX=-0.056;entryY=0.502;entryDx=0;entryDy=0;entryPerimeter=0;" edge="1" parent="1">
          <mxGeometry width="50" height="50" relative="1" as="geometry">
            <mxPoint x="1232" y="1077" as="sourcePoint" />
            <mxPoint x="1295.6399999999999" y="1077.06" as="targetPoint" />
          </mxGeometry>
        </mxCell>
        <mxCell id="VZ5_ZMWETO9TakKGRXgN-170" value="" style="endArrow=none;html=1;rounded=0;exitX=0.5;exitY=1;exitDx=0;exitDy=0;" edge="1" parent="1" source="VZ5_ZMWETO9TakKGRXgN-171">
          <mxGeometry width="50" height="50" relative="1" as="geometry">
            <mxPoint x="1232" y="1135" as="sourcePoint" />
            <mxPoint x="1232" y="1077" as="targetPoint" />
          </mxGeometry>
        </mxCell>
        <mxCell id="VZ5_ZMWETO9TakKGRXgN-171" value="" style="rhombus;whiteSpace=wrap;html=1;" vertex="1" parent="1">
          <mxGeometry x="1192.5" y="940" width="80" height="80" as="geometry" />
        </mxCell>
        <mxCell id="VZ5_ZMWETO9TakKGRXgN-172" value="" style="endArrow=classic;html=1;rounded=0;" edge="1" parent="1" source="VZ5_ZMWETO9TakKGRXgN-119">
          <mxGeometry width="50" height="50" relative="1" as="geometry">
            <mxPoint x="1137.5" y="980" as="sourcePoint" />
            <mxPoint x="1187.5" y="980" as="targetPoint" />
          </mxGeometry>
        </mxCell>
        <mxCell id="VZ5_ZMWETO9TakKGRXgN-174" value="" style="endArrow=none;html=1;rounded=0;" edge="1" parent="1">
          <mxGeometry width="50" height="50" relative="1" as="geometry">
            <mxPoint x="1080" y="1170" as="sourcePoint" />
            <mxPoint x="1080" y="1103" as="targetPoint" />
          </mxGeometry>
        </mxCell>
        <mxCell id="VZ5_ZMWETO9TakKGRXgN-175" value="" style="endArrow=classic;html=1;rounded=0;entryX=0;entryY=0.5;entryDx=0;entryDy=0;" edge="1" parent="1" target="VZ5_ZMWETO9TakKGRXgN-53">
          <mxGeometry width="50" height="50" relative="1" as="geometry">
            <mxPoint x="1080" y="1169" as="sourcePoint" />
            <mxPoint x="1180" y="1170" as="targetPoint" />
          </mxGeometry>
        </mxCell>
        <mxCell id="VZ5_ZMWETO9TakKGRXgN-176" value="" style="endArrow=none;html=1;rounded=0;exitX=0.5;exitY=1;exitDx=0;exitDy=0;" edge="1" parent="1">
          <mxGeometry width="50" height="50" relative="1" as="geometry">
            <mxPoint x="1230.5" y="1210" as="sourcePoint" />
            <mxPoint x="1229.5" y="1267" as="targetPoint" />
          </mxGeometry>
        </mxCell>
        <mxCell id="VZ5_ZMWETO9TakKGRXgN-177" value="" style="endArrow=none;html=1;rounded=0;entryX=-0.056;entryY=0.502;entryDx=0;entryDy=0;entryPerimeter=0;" edge="1" target="VZ5_ZMWETO9TakKGRXgN-178" parent="1">
          <mxGeometry width="50" height="50" relative="1" as="geometry">
            <mxPoint x="1270" y="1170.3" as="sourcePoint" />
            <mxPoint x="1283" y="1169.6953488372092" as="targetPoint" />
          </mxGeometry>
        </mxCell>
        <mxCell id="VZ5_ZMWETO9TakKGRXgN-178" value="관리자" style="text;html=1;strokeColor=none;fillColor=none;align=center;verticalAlign=middle;whiteSpace=wrap;rounded=0;" vertex="1" parent="1">
          <mxGeometry x="1294.5" y="1155" width="60" height="30" as="geometry" />
        </mxCell>
        <mxCell id="VZ5_ZMWETO9TakKGRXgN-179" value="" style="endArrow=classic;html=1;rounded=0;" edge="1" parent="1">
          <mxGeometry width="50" height="50" relative="1" as="geometry">
            <mxPoint x="1348" y="1169.58" as="sourcePoint" />
            <mxPoint x="1398" y="1169.58" as="targetPoint" />
          </mxGeometry>
        </mxCell>
        <mxCell id="VZ5_ZMWETO9TakKGRXgN-180" value="공지 작성" style="rounded=1;whiteSpace=wrap;html=1;" vertex="1" parent="1">
          <mxGeometry x="1397.5" y="1140" width="120" height="60" as="geometry" />
        </mxCell>
        <mxCell id="VZ5_ZMWETO9TakKGRXgN-181" value="질문 작성" style="rounded=1;whiteSpace=wrap;html=1;" vertex="1" parent="1">
          <mxGeometry x="1397.5" y="1237" width="120" height="60" as="geometry" />
        </mxCell>
        <mxCell id="VZ5_ZMWETO9TakKGRXgN-182" value="" style="endArrow=classic;html=1;rounded=0;" edge="1" parent="1">
          <mxGeometry width="50" height="50" relative="1" as="geometry">
            <mxPoint x="1348" y="1266.58" as="sourcePoint" />
            <mxPoint x="1398" y="1266.58" as="targetPoint" />
          </mxGeometry>
        </mxCell>
        <mxCell id="VZ5_ZMWETO9TakKGRXgN-183" value="작업자" style="text;html=1;strokeColor=none;fillColor=none;align=center;verticalAlign=middle;whiteSpace=wrap;rounded=0;" vertex="1" parent="1">
          <mxGeometry x="1294.5" y="1252" width="60" height="30" as="geometry" />
        </mxCell>
        <mxCell id="VZ5_ZMWETO9TakKGRXgN-184" value="" style="endArrow=none;html=1;rounded=0;entryX=-0.056;entryY=0.502;entryDx=0;entryDy=0;entryPerimeter=0;" edge="1" parent="1">
          <mxGeometry width="50" height="50" relative="1" as="geometry">
            <mxPoint x="1229.5" y="1267" as="sourcePoint" />
            <mxPoint x="1293.1399999999999" y="1267.06" as="targetPoint" />
          </mxGeometry>
        </mxCell>
        <mxCell id="VZ5_ZMWETO9TakKGRXgN-190" value="" style="endArrow=classic;html=1;rounded=0;entryX=0;entryY=0.5;entryDx=0;entryDy=0;exitX=1;exitY=0.5;exitDx=0;exitDy=0;" edge="1" target="VZ5_ZMWETO9TakKGRXgN-191" parent="1">
          <mxGeometry width="50" height="50" relative="1" as="geometry">
            <mxPoint x="700" y="1445" as="sourcePoint" />
            <mxPoint x="907" y="1395" as="targetPoint" />
          </mxGeometry>
        </mxCell>
        <mxCell id="VZ5_ZMWETO9TakKGRXgN-191" value="근무 기록&lt;br&gt;페이지" style="rounded=1;whiteSpace=wrap;html=1;" vertex="1" parent="1">
          <mxGeometry x="1005" y="1415" width="120" height="60" as="geometry" />
        </mxCell>
        <mxCell id="VZ5_ZMWETO9TakKGRXgN-192" value="휴가 신청&lt;br&gt;페이지" style="rounded=1;whiteSpace=wrap;html=1;" vertex="1" parent="1">
          <mxGeometry x="1005" y="1505" width="120" height="60" as="geometry" />
        </mxCell>
        <mxCell id="VZ5_ZMWETO9TakKGRXgN-193" value="직원 목록&lt;br&gt;페이지" style="rounded=1;whiteSpace=wrap;html=1;" vertex="1" parent="1">
          <mxGeometry x="1004" y="1325" width="120" height="60" as="geometry" />
        </mxCell>
        <mxCell id="VZ5_ZMWETO9TakKGRXgN-194" value="" style="edgeStyle=segmentEdgeStyle;endArrow=classic;html=1;curved=0;rounded=0;endSize=8;startSize=8;" edge="1" parent="1">
          <mxGeometry width="50" height="50" relative="1" as="geometry">
            <mxPoint x="933" y="1445" as="sourcePoint" />
            <mxPoint x="1000" y="1350" as="targetPoint" />
            <Array as="points">
              <mxPoint x="923" y="1445" />
              <mxPoint x="923" y="1350" />
            </Array>
          </mxGeometry>
        </mxCell>
        <mxCell id="VZ5_ZMWETO9TakKGRXgN-195" value="" style="edgeStyle=segmentEdgeStyle;endArrow=classic;html=1;curved=0;rounded=0;endSize=8;startSize=8;" edge="1" parent="1">
          <mxGeometry width="50" height="50" relative="1" as="geometry">
            <mxPoint x="931" y="1445" as="sourcePoint" />
            <mxPoint x="1001" y="1540" as="targetPoint" />
            <Array as="points">
              <mxPoint x="923" y="1445" />
              <mxPoint x="923" y="1540" />
            </Array>
          </mxGeometry>
        </mxCell>
        <mxCell id="VZ5_ZMWETO9TakKGRXgN-196" value="직원 추가" style="rounded=1;whiteSpace=wrap;html=1;" vertex="1" parent="1">
          <mxGeometry x="1190" y="1325" width="120" height="60" as="geometry" />
        </mxCell>
        <mxCell id="VZ5_ZMWETO9TakKGRXgN-197" value="" style="endArrow=classic;html=1;rounded=0;exitX=1;exitY=0.5;exitDx=0;exitDy=0;" edge="1" parent="1" source="VZ5_ZMWETO9TakKGRXgN-193">
          <mxGeometry width="50" height="50" relative="1" as="geometry">
            <mxPoint x="1134" y="1354" as="sourcePoint" />
            <mxPoint x="1189" y="1354" as="targetPoint" />
          </mxGeometry>
        </mxCell>
        <mxCell id="VZ5_ZMWETO9TakKGRXgN-200" value="" style="endArrow=classic;html=1;rounded=0;exitX=1;exitY=0.5;exitDx=0;exitDy=0;" edge="1" parent="1">
          <mxGeometry width="50" height="50" relative="1" as="geometry">
            <mxPoint x="1125" y="1535" as="sourcePoint" />
            <mxPoint x="1190" y="1534" as="targetPoint" />
          </mxGeometry>
        </mxCell>
        <mxCell id="VZ5_ZMWETO9TakKGRXgN-201" value="휴가 신청 리스트&lt;br&gt;(승인,거절),&lt;br&gt;휴가 내역" style="rounded=1;whiteSpace=wrap;html=1;" vertex="1" parent="1">
          <mxGeometry x="1191" y="1505" width="120" height="60" as="geometry" />
        </mxCell>
        <mxCell id="VZ5_ZMWETO9TakKGRXgN-202" value="" style="endArrow=classic;html=1;rounded=0;" edge="1" parent="1">
          <mxGeometry width="50" height="50" relative="1" as="geometry">
            <mxPoint x="480" y="-95" as="sourcePoint" />
            <mxPoint x="590" y="-95.14" as="targetPoint" />
          </mxGeometry>
        </mxCell>
        <mxCell id="VZ5_ZMWETO9TakKGRXgN-203" value="" style="endArrow=classic;html=1;rounded=0;" edge="1" parent="1">
          <mxGeometry width="50" height="50" relative="1" as="geometry">
            <mxPoint x="480" y="244.8" as="sourcePoint" />
            <mxPoint x="590" y="244.66000000000003" as="targetPoint" />
          </mxGeometry>
        </mxCell>
        <mxCell id="VZ5_ZMWETO9TakKGRXgN-204" value="" style="endArrow=classic;html=1;rounded=0;" edge="1" parent="1">
          <mxGeometry width="50" height="50" relative="1" as="geometry">
            <mxPoint x="480" y="574.8" as="sourcePoint" />
            <mxPoint x="590" y="574.66" as="targetPoint" />
          </mxGeometry>
        </mxCell>
        <mxCell id="VZ5_ZMWETO9TakKGRXgN-205" value="" style="endArrow=classic;html=1;rounded=0;" edge="1" parent="1">
          <mxGeometry width="50" height="50" relative="1" as="geometry">
            <mxPoint x="480" y="981.7999999999998" as="sourcePoint" />
            <mxPoint x="590" y="981.66" as="targetPoint" />
          </mxGeometry>
        </mxCell>
        <mxCell id="VZ5_ZMWETO9TakKGRXgN-206" value="" style="endArrow=classic;html=1;rounded=0;" edge="1" parent="1">
          <mxGeometry width="50" height="50" relative="1" as="geometry">
            <mxPoint x="360" y="1445" as="sourcePoint" />
            <mxPoint x="580" y="1444.6599999999999" as="targetPoint" />
          </mxGeometry>
        </mxCell>
        <mxCell id="VZ5_ZMWETO9TakKGRXgN-207" value="" style="endArrow=none;html=1;rounded=0;" edge="1" parent="1">
          <mxGeometry width="50" height="50" relative="1" as="geometry">
            <mxPoint x="480" y="981" as="sourcePoint" />
            <mxPoint x="480" y="-94" as="targetPoint" />
          </mxGeometry>
        </mxCell>
        <mxCell id="VZ5_ZMWETO9TakKGRXgN-208" value="" style="endArrow=none;html=1;rounded=0;" edge="1" parent="1">
          <mxGeometry width="50" height="50" relative="1" as="geometry">
            <mxPoint x="414" y="330" as="sourcePoint" />
            <mxPoint x="480" y="330" as="targetPoint" />
          </mxGeometry>
        </mxCell>
        <mxCell id="VZ5_ZMWETO9TakKGRXgN-209" value="" style="endArrow=none;html=1;rounded=0;" edge="1" parent="1">
          <mxGeometry width="50" height="50" relative="1" as="geometry">
            <mxPoint x="414" y="819.8" as="sourcePoint" />
            <mxPoint x="480" y="819.8" as="targetPoint" />
          </mxGeometry>
        </mxCell>
        <mxCell id="VZ5_ZMWETO9TakKGRXgN-210" value="" style="endArrow=none;html=1;rounded=0;entryX=0.545;entryY=1.017;entryDx=0;entryDy=0;entryPerimeter=0;" edge="1" parent="1" target="54wMb6xm-zJrqUJl9DJ9-198">
          <mxGeometry width="50" height="50" relative="1" as="geometry">
            <mxPoint x="360" y="1445" as="sourcePoint" />
            <mxPoint x="360" y="856" as="targetPoint" />
          </mxGeometry>
        </mxCell>
      </root>
    </mxGraphModel>
  </diagram>
</mxfile>
